<svg width="400" height="75" viewBox="0 0 400 75" fill="none" xmlns="http://www.w3.org/2000/svg">
<path d="M109.171 27.5007H97.1656C93.3542 27.5007 90.2644 30.5919 90.2644 34.4052V41.3182C90.2644 45.1315 93.3542 48.2227 97.1656 48.2227H109.171H116.44C116.44 50.4015 110.46 55.4906 105.552 55.4906H97.1656C89.3421 55.4906 83 49.1454 83 41.3182V34.4052C83 26.578 89.3421 20.2327 97.1656 20.2327H105.552C111.005 20.2327 116.44 25.8669 116.44 27.5007H109.171Z" fill="#ffffff"/>
<path d="M122.983 17.3249C122.983 13.31 126.238 10.0552 130.253 10.0552V10.0552V55.4907H122.983V17.3249Z" fill="#ffffff"/>
<path d="M155.27 20.241C157.16 20.241 159.273 20.1753 160.364 20.4144C167.494 21.9762 172.061 27.266 172.054 34.9975V41.3148C172.054 49.1439 165.707 55.4906 157.878 55.4906H149.835C145.825 55.4906 139.441 52.4475 137.282 46.4152C135.123 40.3829 140.374 32.8156 148.717 32.8156H164.782C164.782 30.2569 161.819 27.4947 156.875 27.4947H138.168V27.4947C140.773 23.0047 145.571 20.241 150.762 20.241L155.27 20.241ZM156.63 48.1851C161.132 48.1851 164.782 44.5356 164.782 40.0336V40.0336H148.717C142.711 40.0336 142.698 48.1851 148.717 48.1851H156.63Z" fill="#ffffff"/>
<path d="M185.864 27.5026L185.864 41.3251C185.864 45.1365 188.955 48.2263 192.769 48.2263L199.682 48.2263C203.495 48.2263 206.586 45.1365 206.586 41.3251L206.586 27.5026L206.586 20.2329C208.765 20.2329 213.854 26.2137 213.854 31.1215L213.854 41.3251C213.854 49.1485 207.509 55.4907 199.682 55.4907L192.769 55.4907C184.941 55.4907 178.596 49.1485 178.596 41.3251L178.596 31.1215C178.596 25.6684 184.23 20.2329 185.864 20.2329L185.864 27.5026Z" fill="#ffffff"/>
<path fill-rule="evenodd" clip-rule="evenodd" d="M256.013 10.0552C252.001 10.0552 248.748 12.2822 248.748 16.2992L248.748 20.1897H234.573C226.743 20.1897 220.397 26.5442 220.397 34.3829V41.2975C220.397 49.1362 226.743 55.4907 234.573 55.4907H241.842C249.671 55.4907 256.018 49.1362 256.018 41.2975V20.1897H256.013L256.013 10.0552ZM248.748 27.4683H234.573C230.758 27.4683 227.666 30.5641 227.666 34.3829V41.2975C227.666 45.1164 230.758 48.2121 234.573 48.2121H241.842C245.656 48.2121 248.748 45.1164 248.748 41.2975V27.4683Z" fill="#ffffff"/>
<path fill-rule="evenodd" clip-rule="evenodd" d="M269.831 10C265.816 10 262.561 13.2547 262.561 17.2697H269.831V10ZM269.836 20.2329H262.566V55.4907H269.836V20.2329Z" fill="#ffffff"/>
<path fill-rule="evenodd" clip-rule="evenodd" d="M290.589 55.4907C282.813 55.4907 276.499 49.2613 276.401 41.5399C276.371 39.1255 276.371 36.7072 276.401 34.2928C276.501 26.3973 282.851 20.2329 290.627 20.2329H297.539C302.984 20.2329 307.301 22.942 309.822 26.8645C312.174 30.5226 312.063 34.7493 311.954 38.9224C311.931 39.7992 311.908 40.6736 311.908 41.5399H283.679C283.775 45.2585 286.832 48.2435 290.589 48.2435H297.501H310.04C307.614 52.5673 302.828 55.4907 297.501 55.4907H290.589ZM284.374 34.5512C284.471 30.8326 287.527 27.8476 291.284 27.8476H298.197C301.953 27.8476 305.01 30.8326 305.107 34.5512H294.74H284.374Z" fill="#ffffff"/>
<path d="M29.152 46.2561C30.4698 45.8704 31.6971 45.4786 32.7896 45.0912C32.146 39.9848 31.8245 35.0007 32.585 29.8797C31.3995 29.4884 30.2188 29.1033 29.0156 28.7892C28.3213 34.9753 28.5674 40.9574 29.152 46.2561Z" fill="#ffffff"/>
<path fill-rule="evenodd" clip-rule="evenodd" d="M32.3865 2.91197C35.671 1.03073 39.7046 1.02925 42.9904 2.90808L64.7665 15.3596C68.0957 17.2633 70.1504 20.8069 70.1504 24.6448V50.1445C70.1504 53.9563 68.1233 57.4799 64.8298 59.3932L43.0326 72.0555C39.7259 73.9764 35.6457 73.9819 32.3338 72.0699L10.4959 59.4624C7.1883 57.5529 5.15039 54.0214 5.15039 50.1993V24.7135C5.15039 20.8784 7.20213 17.3369 10.5275 15.4322L32.3865 2.91197ZM63.3628 17.7284L41.7261 5.35653C37.7464 10.9713 35.3644 17.9796 33.7468 24.5907C32.5536 24.0813 31.2084 23.531 29.9391 23.0684C30.812 17.2914 31.8184 11.5021 32.9423 5.76634C25.8456 9.83112 18.489 13.6266 11.5846 18.0089C24.8318 22.2016 38.5336 26.4806 49.876 34.7806C49.1751 35.4461 48.3804 36.109 47.1977 37.0762C37.1385 28.4579 24.523 24.9213 7.90137 25.896V49.7976C9.3702 49.8979 10.8743 49.9979 12.3176 49.954C37.0973 49.1988 54.6223 37.1726 63.3628 17.7284ZM11.6793 56.9631C18.6322 61.2403 25.8449 65.1448 32.9148 69.2263C31.7702 63.2499 30.8054 57.6145 29.9163 51.5936C31.2816 51.1285 32.8458 50.4887 33.734 50.1211C35.412 57.1439 37.9416 63.5236 41.8467 69.5605L62.8318 57.37C61.0923 51.0351 55.654 45.3912 51.2298 40.9212C52.3621 40.1484 53.4385 39.2997 54.5127 38.449C58.9589 42.1014 63.0813 45.8532 67.3994 49.6546V25.6332C65.5619 27.3229 62.7531 29.8776 59.468 32.7705C45.6263 44.9599 40.8203 46.6945 11.6793 56.9631Z" fill="#ffffff"/>
<text x="320" y="52" font-family="Inter, sans-serif" font-size="36" font-weight="400" fill="#ffffff">Docs</text>
</svg>
