<svg width="631" height="870" viewBox="0 0 631 870" fill="none" xmlns="http://www.w3.org/2000/svg">
<path d="M5.81375 856.152V820.454H8.92462L25.2439 848.299H23.612L39.7783 820.454H42.8892V856.152H39.2683V826.115H40.1353L25.2439 851.614H23.459L8.46564 826.115H9.4346V856.152H5.81375ZM64.8222 856.407C62.5443 856.407 60.5554 855.982 58.8555 855.133C57.1555 854.283 55.8296 853.008 54.8776 851.308C53.9597 849.608 53.5007 847.483 53.5007 844.933V829.379H57.1216V844.525C57.1216 847.381 57.8185 849.54 59.2125 851.002C60.6404 852.43 62.6293 853.144 65.1792 853.144C67.0491 853.144 68.6641 852.77 70.024 852.022C71.4179 851.24 72.4719 850.118 73.1859 848.656C73.9338 847.194 74.3078 845.443 74.3078 843.403V829.379H77.9287V856.152H74.4608V848.809L75.0218 850.135C74.1718 852.107 72.8459 853.654 71.044 854.776C69.276 855.863 67.2021 856.407 64.8222 856.407ZM88.0199 856.152V818.312H91.6407V856.152H88.0199ZM110.331 856.407C107.815 856.407 105.877 855.727 104.517 854.368C103.157 853.008 102.477 851.087 102.477 848.605V823.463H106.098V848.401C106.098 849.965 106.489 851.172 107.271 852.022C108.087 852.872 109.243 853.297 110.739 853.297C112.337 853.297 113.662 852.838 114.716 851.92L115.991 854.521C115.277 855.167 114.41 855.642 113.39 855.948C112.405 856.254 111.385 856.407 110.331 856.407ZM97.6831 832.387V829.379H114.257V832.387H97.6831ZM122.583 856.152V829.379H126.204V856.152H122.583ZM124.419 823.463C123.671 823.463 123.042 823.208 122.532 822.698C122.022 822.188 121.767 821.576 121.767 820.862C121.767 820.148 122.022 819.553 122.532 819.077C123.042 818.567 123.671 818.312 124.419 818.312C125.167 818.312 125.796 818.55 126.306 819.026C126.816 819.502 127.071 820.097 127.071 820.811C127.071 821.559 126.816 822.188 126.306 822.698C125.83 823.208 125.201 823.463 124.419 823.463ZM147.637 843.913V840.751H160.998V843.913H147.637ZM193.563 856.407C190.911 856.407 188.531 855.829 186.423 854.674C184.349 853.484 182.718 851.869 181.528 849.829C180.338 847.755 179.743 845.392 179.743 842.74C179.743 840.054 180.338 837.691 181.528 835.651C182.718 833.611 184.349 832.013 186.423 830.858C188.531 829.702 190.911 829.124 193.563 829.124C195.841 829.124 197.898 829.566 199.734 830.45C201.57 831.334 203.015 832.659 204.069 834.427L201.366 836.263C200.448 834.903 199.309 833.9 197.949 833.254C196.589 832.608 195.11 832.285 193.512 832.285C191.608 832.285 189.891 832.727 188.361 833.611C186.831 834.461 185.624 835.668 184.74 837.232C183.856 838.796 183.414 840.632 183.414 842.74C183.414 844.848 183.856 846.684 184.74 848.248C185.624 849.812 186.831 851.036 188.361 851.92C189.891 852.77 191.608 853.195 193.512 853.195C195.11 853.195 196.589 852.872 197.949 852.226C199.309 851.58 200.448 850.594 201.366 849.268L204.069 851.104C203.015 852.838 201.57 854.164 199.734 855.082C197.898 855.965 195.841 856.407 193.563 856.407ZM210.783 856.152V818.312H214.404V856.152H210.783ZM235.392 856.407C232.809 856.407 230.48 855.829 228.406 854.674C226.366 853.484 224.751 851.869 223.561 849.829C222.371 847.755 221.776 845.392 221.776 842.74C221.776 840.054 222.371 837.691 223.561 835.651C224.751 833.611 226.366 832.013 228.406 830.858C230.446 829.702 232.775 829.124 235.392 829.124C238.044 829.124 240.39 829.702 242.43 830.858C244.504 832.013 246.119 833.611 247.275 835.651C248.465 837.691 249.06 840.054 249.06 842.74C249.06 845.392 248.465 847.755 247.275 849.829C246.119 851.869 244.504 853.484 242.43 854.674C240.356 855.829 238.01 856.407 235.392 856.407ZM235.392 853.195C237.33 853.195 239.047 852.77 240.543 851.92C242.039 851.036 243.212 849.812 244.062 848.248C244.946 846.65 245.388 844.814 245.388 842.74C245.388 840.632 244.946 838.796 244.062 837.232C243.212 835.668 242.039 834.461 240.543 833.611C239.047 832.727 237.347 832.285 235.443 832.285C233.539 832.285 231.84 832.727 230.344 833.611C228.848 834.461 227.658 835.668 226.774 837.232C225.89 838.796 225.448 840.632 225.448 842.74C225.448 844.814 225.89 846.65 226.774 848.248C227.658 849.812 228.848 851.036 230.344 851.92C231.84 852.77 233.522 853.195 235.392 853.195ZM267.519 856.407C265.241 856.407 263.252 855.982 261.552 855.133C259.852 854.283 258.526 853.008 257.574 851.308C256.656 849.608 256.197 847.483 256.197 844.933V829.379H259.818V844.525C259.818 847.381 260.515 849.54 261.909 851.002C263.337 852.43 265.326 853.144 267.876 853.144C269.746 853.144 271.361 852.77 272.72 852.022C274.114 851.24 275.168 850.118 275.882 848.656C276.63 847.194 277.004 845.443 277.004 843.403V829.379H280.625V856.152H277.157V848.809L277.718 850.135C276.868 852.107 275.542 853.654 273.74 854.776C271.972 855.863 269.899 856.407 267.519 856.407ZM301.375 856.407C298.825 856.407 296.53 855.829 294.49 854.674C292.484 853.518 290.903 851.92 289.747 849.88C288.591 847.806 288.013 845.426 288.013 842.74C288.013 840.02 288.591 837.64 289.747 835.6C290.903 833.56 292.484 831.979 294.49 830.858C296.53 829.702 298.825 829.124 301.375 829.124C303.721 829.124 305.812 829.651 307.648 830.705C309.517 831.759 310.996 833.305 312.084 835.345C313.206 837.351 313.767 839.816 313.767 842.74C313.767 845.63 313.223 848.095 312.135 850.135C311.047 852.175 309.568 853.739 307.699 854.827C305.863 855.88 303.755 856.407 301.375 856.407ZM301.63 853.195C303.534 853.195 305.234 852.77 306.73 851.92C308.26 851.036 309.449 849.812 310.299 848.248C311.183 846.65 311.625 844.814 311.625 842.74C311.625 840.632 311.183 838.796 310.299 837.232C309.449 835.668 308.26 834.461 306.73 833.611C305.234 832.727 303.534 832.285 301.63 832.285C299.76 832.285 298.077 832.727 296.581 833.611C295.085 834.461 293.895 835.668 293.011 837.232C292.127 838.796 291.685 840.632 291.685 842.74C291.685 844.814 292.127 846.65 293.011 848.248C293.895 849.812 295.085 851.036 296.581 851.92C298.077 852.77 299.76 853.195 301.63 853.195ZM311.727 856.152V848.095L312.084 842.689L311.574 837.283V818.312H315.195V856.152H311.727ZM342.655 847.279L342.502 842.689L364.125 820.454H368.46L352.702 836.977L350.56 839.272L342.655 847.279ZM339.391 856.152V820.454H343.165V856.152H339.391ZM365.043 856.152L349.642 838.405L352.192 835.651L369.531 856.152H365.043ZM385.003 856.407C382.725 856.407 380.736 855.982 379.036 855.133C377.336 854.283 376.01 853.008 375.058 851.308C374.14 849.608 373.681 847.483 373.681 844.933V829.379H377.302V844.525C377.302 847.381 377.999 849.54 379.393 851.002C380.821 852.43 382.81 853.144 385.36 853.144C387.23 853.144 388.845 852.77 390.205 852.022C391.599 851.24 392.653 850.118 393.367 848.656C394.115 847.194 394.489 845.443 394.489 843.403V829.379H398.109V856.152H394.642V848.809L395.202 850.135C394.353 852.107 393.027 853.654 391.225 854.776C389.457 855.863 387.383 856.407 385.003 856.407ZM422.021 856.407C419.675 856.407 417.567 855.88 415.697 854.827C413.827 853.739 412.348 852.175 411.26 850.135C410.172 848.095 409.628 845.63 409.628 842.74C409.628 839.816 410.172 837.351 411.26 835.345C412.382 833.305 413.878 831.759 415.748 830.705C417.618 829.651 419.709 829.124 422.021 829.124C424.571 829.124 426.849 829.702 428.855 830.858C430.895 831.979 432.493 833.56 433.648 835.6C434.804 837.64 435.382 840.02 435.382 842.74C435.382 845.426 434.804 847.806 433.648 849.88C432.493 851.92 430.895 853.518 428.855 854.674C426.849 855.829 424.571 856.407 422.021 856.407ZM408.201 856.152V818.312H411.821V837.283L411.311 842.689L411.668 848.095V856.152H408.201ZM421.766 853.195C423.67 853.195 425.37 852.77 426.866 851.92C428.362 851.036 429.552 849.812 430.436 848.248C431.32 846.65 431.762 844.814 431.762 842.74C431.762 840.632 431.32 838.796 430.436 837.232C429.552 835.668 428.362 834.461 426.866 833.611C425.37 832.727 423.67 832.285 421.766 832.285C419.862 832.285 418.145 832.727 416.615 833.611C415.119 834.461 413.929 835.668 413.045 837.232C412.195 838.796 411.77 840.632 411.77 842.74C411.77 844.814 412.195 846.65 413.045 848.248C413.929 849.812 415.119 851.036 416.615 851.92C418.145 852.77 419.862 853.195 421.766 853.195ZM454.136 856.407C451.348 856.407 448.9 855.829 446.792 854.674C444.684 853.484 443.036 851.869 441.846 849.829C440.656 847.755 440.061 845.392 440.061 842.74C440.061 840.088 440.622 837.742 441.744 835.702C442.9 833.662 444.463 832.064 446.435 830.909C448.441 829.719 450.685 829.124 453.167 829.124C455.683 829.124 457.91 829.702 459.848 830.858C461.82 831.979 463.367 833.577 464.489 835.651C465.611 837.691 466.172 840.054 466.172 842.74C466.172 842.91 466.155 843.097 466.121 843.301C466.121 843.471 466.121 843.658 466.121 843.862H442.815V841.159H464.183L462.755 842.23C462.755 840.292 462.33 838.575 461.48 837.079C460.664 835.549 459.542 834.359 458.114 833.509C456.686 832.659 455.037 832.234 453.167 832.234C451.331 832.234 449.682 832.659 448.22 833.509C446.758 834.359 445.619 835.549 444.803 837.079C443.987 838.609 443.58 840.36 443.58 842.332V842.893C443.58 844.933 444.021 846.735 444.905 848.299C445.823 849.829 447.081 851.036 448.679 851.92C450.311 852.77 452.164 853.195 454.238 853.195C455.87 853.195 457.383 852.906 458.777 852.328C460.205 851.75 461.429 850.866 462.449 849.676L464.489 852.022C463.299 853.45 461.803 854.538 460.001 855.286C458.233 856.033 456.278 856.407 454.136 856.407ZM473.542 856.152V829.379H477.009V836.671L476.652 835.396C477.4 833.356 478.658 831.81 480.426 830.756C482.194 829.668 484.387 829.124 487.005 829.124V832.642C486.869 832.642 486.733 832.642 486.597 832.642C486.461 832.608 486.325 832.591 486.189 832.591C483.367 832.591 481.157 833.458 479.559 835.192C477.961 836.892 477.162 839.323 477.162 842.485V856.152H473.542ZM507.279 829.124C509.455 829.124 511.359 829.549 512.991 830.399C514.657 831.215 515.949 832.472 516.867 834.172C517.819 835.872 518.295 838.014 518.295 840.598V856.152H514.674V840.955C514.674 838.133 513.96 836.008 512.532 834.58C511.138 833.118 509.166 832.387 506.616 832.387C504.712 832.387 503.047 832.778 501.619 833.56C500.225 834.308 499.137 835.413 498.355 836.875C497.607 838.303 497.233 840.037 497.233 842.077V856.152H493.612V829.379H497.08V836.722L496.519 835.345C497.369 833.407 498.729 831.894 500.599 830.807C502.469 829.685 504.695 829.124 507.279 829.124ZM539.448 856.407C536.66 856.407 534.212 855.829 532.104 854.674C529.996 853.484 528.347 851.869 527.157 849.829C525.967 847.755 525.372 845.392 525.372 842.74C525.372 840.088 525.933 837.742 527.055 835.702C528.211 833.662 529.775 832.064 531.747 830.909C533.753 829.719 535.997 829.124 538.479 829.124C540.995 829.124 543.222 829.702 545.16 830.858C547.132 831.979 548.678 833.577 549.8 835.651C550.922 837.691 551.483 840.054 551.483 842.74C551.483 842.91 551.466 843.097 551.432 843.301C551.432 843.471 551.432 843.658 551.432 843.862H528.126V841.159H549.494L548.066 842.23C548.066 840.292 547.642 838.575 546.792 837.079C545.976 835.549 544.854 834.359 543.426 833.509C541.998 832.659 540.349 832.234 538.479 832.234C536.643 832.234 534.994 832.659 533.532 833.509C532.07 834.359 530.931 835.549 530.115 837.079C529.299 838.609 528.891 840.36 528.891 842.332V842.893C528.891 844.933 529.333 846.735 530.217 848.299C531.135 849.829 532.393 851.036 533.991 851.92C535.623 852.77 537.476 853.195 539.55 853.195C541.182 853.195 542.695 852.906 544.089 852.328C545.517 851.75 546.741 850.866 547.76 849.676L549.8 852.022C548.61 853.45 547.115 854.538 545.313 855.286C543.545 856.033 541.59 856.407 539.448 856.407ZM567.319 856.407C564.803 856.407 562.865 855.727 561.505 854.368C560.145 853.008 559.465 851.087 559.465 848.605V823.463H563.086V848.401C563.086 849.965 563.477 851.172 564.259 852.022C565.075 852.872 566.231 853.297 567.727 853.297C569.325 853.297 570.651 852.838 571.705 851.92L572.98 854.521C572.266 855.167 571.399 855.642 570.379 855.948C569.393 856.254 568.373 856.407 567.319 856.407ZM554.671 832.387V829.379H571.246V832.387H554.671ZM589.997 856.407C587.21 856.407 584.762 855.829 582.654 854.674C580.546 853.484 578.897 851.869 577.707 849.829C576.517 847.755 575.922 845.392 575.922 842.74C575.922 840.088 576.483 837.742 577.605 835.702C578.761 833.662 580.325 832.064 582.297 830.909C584.303 829.719 586.547 829.124 589.028 829.124C591.544 829.124 593.771 829.702 595.709 830.858C597.681 831.979 599.228 833.577 600.35 835.651C601.472 837.691 602.033 840.054 602.033 842.74C602.033 842.91 602.016 843.097 601.982 843.301C601.982 843.471 601.982 843.658 601.982 843.862H578.676V841.159H600.044L598.616 842.23C598.616 840.292 598.191 838.575 597.341 837.079C596.525 835.549 595.403 834.359 593.975 833.509C592.547 832.659 590.898 832.234 589.028 832.234C587.193 832.234 585.544 832.659 584.082 833.509C582.62 834.359 581.481 835.549 580.665 837.079C579.849 838.609 579.441 840.36 579.441 842.332V842.893C579.441 844.933 579.883 846.735 580.767 848.299C581.685 849.829 582.943 851.036 584.541 851.92C586.173 852.77 588.025 853.195 590.099 853.195C591.731 853.195 593.244 852.906 594.638 852.328C596.066 851.75 597.29 850.866 598.31 849.676L600.35 852.022C599.16 853.45 597.664 854.538 595.862 855.286C594.094 856.033 592.139 856.407 589.997 856.407ZM616.594 856.407C614.384 856.407 612.293 856.101 610.321 855.489C608.349 854.844 606.802 854.045 605.68 853.093L607.312 850.237C608.4 851.053 609.794 851.767 611.494 852.379C613.194 852.957 614.979 853.246 616.849 853.246C619.398 853.246 621.234 852.855 622.356 852.073C623.478 851.257 624.039 850.186 624.039 848.86C624.039 847.874 623.716 847.109 623.07 846.565C622.458 845.987 621.642 845.562 620.622 845.29C619.602 844.984 618.464 844.729 617.206 844.525C615.948 844.321 614.69 844.083 613.432 843.811C612.208 843.539 611.086 843.148 610.066 842.638C609.046 842.094 608.213 841.363 607.567 840.445C606.955 839.527 606.649 838.303 606.649 836.773C606.649 835.311 607.057 834.002 607.873 832.846C608.689 831.691 609.879 830.79 611.443 830.144C613.041 829.464 614.979 829.124 617.257 829.124C618.991 829.124 620.724 829.362 622.458 829.838C624.192 830.28 625.62 830.875 626.742 831.623L625.161 834.529C623.971 833.713 622.696 833.135 621.336 832.795C619.976 832.421 618.617 832.234 617.257 832.234C614.843 832.234 613.058 832.659 611.902 833.509C610.78 834.325 610.219 835.379 610.219 836.671C610.219 837.691 610.525 838.49 611.137 839.068C611.783 839.646 612.616 840.105 613.636 840.445C614.69 840.751 615.829 841.006 617.053 841.21C618.311 841.414 619.551 841.669 620.775 841.975C622.033 842.247 623.172 842.638 624.192 843.148C625.246 843.624 626.079 844.321 626.691 845.239C627.337 846.123 627.66 847.296 627.66 848.758C627.66 850.322 627.218 851.682 626.334 852.838C625.484 853.96 624.226 854.844 622.56 855.489C620.928 856.101 618.94 856.407 616.594 856.407Z" fill="#2A6A95"/>
<path d="M72.1992 696.147H39.1709C28.6851 696.147 20.1847 704.652 20.1847 715.143V734.161C20.1847 744.652 28.6851 753.157 39.1709 753.157H72.1992H92.1992C92.1992 759.151 75.7452 773.152 62.2431 773.152H39.1709C17.6474 773.152 0.199219 755.695 0.199219 734.161V715.143C0.199219 693.609 17.6474 676.152 39.1709 676.152H62.2431C77.2452 676.152 92.1992 691.653 92.1992 696.147H72.1992Z" fill="#2A6A95"/>
<path d="M110.199 668.152C110.199 657.106 119.154 648.152 130.199 648.152V648.152V773.152H110.199V668.152Z" fill="#2A6A95"/>
<path d="M199.025 676.175C204.225 676.175 210.037 675.994 213.04 676.652C232.656 680.949 245.22 695.502 245.199 716.772V734.152C245.199 755.691 227.738 773.152 206.199 773.152H184.073C173.04 773.152 155.476 764.78 149.536 748.184C143.597 731.588 158.045 710.769 180.997 710.769H225.194C225.194 703.73 217.041 696.131 203.441 696.131H151.975V696.131C159.141 683.778 172.341 676.175 186.622 676.175L199.025 676.175ZM202.768 753.054C215.153 753.054 225.194 743.013 225.194 730.627V730.627H180.997C164.473 730.627 164.437 753.054 180.997 753.054H202.768Z" fill="#2A6A95"/>
<path d="M283.194 696.152L283.194 734.18C283.194 744.666 291.699 753.167 302.19 753.167L321.209 753.167C331.7 753.167 340.204 744.666 340.204 734.18L340.204 696.152L340.204 676.152C346.198 676.152 360.199 692.606 360.199 706.109L360.199 734.18C360.199 755.704 342.743 773.152 321.209 773.152L302.19 773.152C280.656 773.152 263.199 755.704 263.199 734.18L263.199 706.109C263.199 691.106 278.7 676.152 283.194 676.152L283.194 696.152Z" fill="#2A6A95"/>
<path fill-rule="evenodd" clip-rule="evenodd" d="M476.185 648.152C465.147 648.152 456.199 654.279 456.199 665.33L456.199 676.034H417.199C395.66 676.034 378.199 693.516 378.199 715.081V734.104C378.199 755.67 395.66 773.152 417.199 773.152H437.199C458.738 773.152 476.199 755.67 476.199 734.104V676.034H476.185L476.185 648.152ZM456.199 696.058H417.199C406.706 696.058 398.199 704.575 398.199 715.081V734.104C398.199 744.611 406.706 753.128 417.199 753.128H437.199C447.693 753.128 456.199 744.611 456.199 734.104V696.058Z" fill="#2A6A95"/>
<path fill-rule="evenodd" clip-rule="evenodd" d="M514.199 648C503.154 648 494.199 656.954 494.199 668H514.199V648ZM514.214 676.152H494.214V773.152H514.214V676.152Z" fill="#2A6A95"/>
<path fill-rule="evenodd" clip-rule="evenodd" d="M571.309 773.152C549.917 773.152 532.545 756.014 532.277 734.771C532.193 728.129 532.193 721.476 532.277 714.833C532.551 693.112 550.022 676.152 571.413 676.152H590.43C605.409 676.152 617.286 683.606 624.223 694.397C630.692 704.461 630.387 716.089 630.087 727.57C630.023 729.982 629.96 732.388 629.96 734.771H552.298C552.563 745.002 560.973 753.214 571.309 753.214H590.326H624.823C618.148 765.109 604.98 773.152 590.326 773.152H571.309ZM554.211 715.544C554.476 705.314 562.886 697.102 573.222 697.102H592.239C602.574 697.102 610.984 705.314 611.249 715.544H582.73H554.211Z" fill="#2A6A95"/>
<path d="M248.023 369.658C258.518 366.589 268.291 363.472 276.991 360.391C271.866 319.767 269.306 280.117 275.362 239.378C265.921 236.265 256.518 233.201 246.937 230.702C241.408 279.915 243.368 327.505 248.023 369.658Z" fill="#2A6A95"/>
<path fill-rule="evenodd" clip-rule="evenodd" d="M273.781 24.8409C299.936 9.87505 332.057 9.86325 358.224 24.8099L531.635 123.866C558.146 139.01 574.509 167.201 574.509 197.733V400.591C574.509 430.916 558.366 458.947 532.139 474.168L358.56 574.9C332.227 590.181 299.735 590.225 273.361 575.014L99.4576 474.718C73.1183 459.527 56.8896 431.433 56.8896 401.027V198.279C56.8896 167.769 73.2284 139.596 99.7095 124.444L273.781 24.8409ZM520.457 142.71L348.156 44.2882C316.464 88.9552 297.495 144.709 284.614 197.302C275.112 193.25 264.399 188.872 254.292 185.192C261.242 139.234 269.257 93.1782 278.207 47.5484C221.694 79.885 163.11 110.079 108.128 144.942C213.62 178.296 322.732 212.337 413.056 278.367C407.475 283.66 401.146 288.934 391.728 296.629C311.623 228.067 211.161 199.932 78.7967 207.686V397.831C90.4935 398.63 102.471 399.425 113.965 399.075C311.295 393.068 450.853 297.395 520.457 142.71ZM108.882 454.835C164.25 488.862 221.688 519.923 277.988 552.393C268.873 504.849 261.19 460.018 254.11 412.119C264.982 408.419 277.438 403.329 284.511 400.405C297.874 456.274 318.019 507.026 349.116 555.052L516.228 458.072C502.376 407.676 459.068 362.777 423.837 327.217C432.854 321.069 441.426 314.318 449.98 307.549C485.387 336.605 518.215 366.453 552.602 396.694V205.596C537.969 219.038 515.601 239.361 489.441 262.376C379.215 359.346 340.942 373.145 108.882 454.835Z" fill="#2A6A95"/>
</svg>
