<svg width="427" height="261" viewBox="0 0 427 261" fill="none" xmlns="http://www.w3.org/2000/svg">
<path d="M197.304 92.5123C199.94 91.7408 202.394 90.9572 204.579 90.1825C203.292 79.9696 202.649 70.0014 204.17 59.7594C201.799 58.9767 199.438 58.2066 197.031 57.5783C195.643 69.9507 196.135 81.9148 197.304 92.5123Z" fill="#2A6A95"/>
<path fill-rule="evenodd" clip-rule="evenodd" d="M203.773 5.82394C210.342 2.06147 218.409 2.0585 224.981 5.81616L268.533 30.7193C275.191 34.5265 279.301 41.6137 279.301 49.2896V100.289C279.301 107.913 275.247 114.96 268.66 118.786L225.065 144.111C218.452 147.953 210.291 147.964 203.668 144.14L159.992 118.925C153.377 115.106 149.301 108.043 149.301 100.399V49.427C149.301 41.7567 153.404 34.6739 160.055 30.8645L203.773 5.82394ZM265.726 35.4568L222.452 10.7131C214.493 21.9425 209.729 35.9592 206.494 49.1814C204.107 48.1626 201.417 47.0619 198.878 46.1369C200.624 34.5829 202.637 23.0042 204.885 11.5327C190.691 19.6622 175.978 27.2532 162.169 36.0178C188.664 44.4032 216.067 52.9611 238.752 69.5613C237.35 70.8922 235.761 72.2179 233.395 74.1524C213.277 56.9158 188.046 49.8426 154.803 51.792V99.5952C157.74 99.7959 160.749 99.9959 163.635 99.9079C213.195 98.3976 248.245 74.3451 265.726 35.4568ZM162.359 113.926C176.264 122.481 190.69 130.29 204.83 138.453C202.54 126.5 200.611 115.229 198.833 103.187C201.563 102.257 204.692 100.977 206.468 100.242C209.824 114.288 214.883 127.047 222.693 139.121L264.664 114.74C261.185 102.07 250.308 90.7824 241.46 81.8424C243.724 80.2967 245.877 78.5995 248.025 76.898C256.918 84.2028 265.163 91.7065 273.799 99.3093V51.2665C270.124 54.6459 264.506 59.7552 257.936 65.5411C230.253 89.9199 220.641 93.389 162.359 113.926Z" fill="#2A6A95"/>
<path d="M48.6846 206.556H26.3517C19.2614 206.556 13.5137 212.306 13.5137 219.4V232.26C13.5137 239.354 19.2614 245.104 26.3517 245.104H48.6846H62.2081C62.2081 249.158 51.0823 258.625 41.9525 258.625H26.3517C11.798 258.625 0 246.821 0 232.26V219.4C0 204.839 11.798 193.036 26.3517 193.036H41.9525C52.0965 193.036 62.2081 203.517 62.2081 206.556H48.6846Z" fill="#2A6A95"/>
<path d="M74.3793 187.626C74.3793 180.157 80.4339 174.103 87.9028 174.103V174.103V258.625H74.3793V187.626Z" fill="#2A6A95"/>
<path d="M134.441 193.051C137.957 193.051 141.887 192.929 143.918 193.374C157.181 196.279 165.677 206.119 165.663 220.502V232.254C165.663 246.818 153.856 258.625 139.292 258.625H124.331C116.87 258.625 104.994 252.964 100.978 241.742C96.9618 230.52 106.731 216.443 122.251 216.443H152.136C152.136 211.683 146.623 206.545 137.427 206.545H102.627V206.545C107.472 198.192 116.398 193.051 126.054 193.051L134.441 193.051ZM136.972 245.034C145.346 245.034 152.136 238.245 152.136 229.871V229.871H122.251C111.078 229.871 111.054 245.034 122.251 245.034H136.972Z" fill="#2A6A95"/>
<path d="M191.354 206.559L191.354 232.273C191.354 239.363 197.105 245.111 204.198 245.111L217.058 245.111C224.152 245.111 229.903 239.363 229.903 232.273L229.903 206.559L229.903 193.036C233.956 193.036 243.423 204.162 243.423 213.292L243.423 232.273C243.423 246.827 231.619 258.625 217.058 258.625L204.198 258.625C189.638 258.625 177.834 246.827 177.834 232.273L177.834 213.292C177.834 203.148 188.315 193.036 191.354 193.036L191.354 206.559Z" fill="#2A6A95"/>
<path fill-rule="evenodd" clip-rule="evenodd" d="M321.85 174.103C314.386 174.103 308.336 178.246 308.336 185.718L308.336 192.956H281.965C267.401 192.956 255.594 204.777 255.594 219.359V232.222C255.594 246.804 267.401 258.625 281.965 258.625H295.488C310.053 258.625 321.859 246.804 321.859 232.222V192.956H321.85L321.85 174.103ZM308.336 206.496H281.965C274.869 206.496 269.117 212.255 269.117 219.359V232.222C269.117 239.326 274.869 245.085 281.965 245.085H295.488C302.584 245.085 308.336 239.326 308.336 232.222V206.496Z" fill="#2A6A95"/>
<path fill-rule="evenodd" clip-rule="evenodd" d="M347.554 174C340.085 174 334.03 180.055 334.03 187.523H347.554V174ZM347.564 193.036H334.04V258.625H347.564V193.036Z" fill="#2A6A95"/>
<path fill-rule="evenodd" clip-rule="evenodd" d="M386.17 258.625C371.705 258.625 359.959 247.036 359.777 232.673C359.721 228.181 359.721 223.682 359.777 219.191C359.963 204.503 371.776 193.036 386.24 193.036H399.099C409.228 193.036 417.259 198.076 421.949 205.372C426.323 212.178 426.117 220.04 425.914 227.803C425.871 229.434 425.829 231.061 425.829 232.673H373.315C373.495 239.59 379.181 245.143 386.17 245.143H399.029H422.355C417.841 253.186 408.937 258.625 399.029 258.625H386.17ZM374.609 219.672C374.788 212.754 380.475 207.201 387.463 207.201H400.322C407.311 207.201 412.997 212.754 413.177 219.672H393.893H374.609Z" fill="#2A6A95"/>
</svg>
