<svg width="1200" height="1200" viewBox="0 0 1200 1200" fill="none" xmlns="http://www.w3.org/2000/svg">
<rect width="1200" height="1200" rx="200" fill="white"/>
<path d="M289.814 1021.15V985.454H292.925L309.244 1013.3H307.612L323.778 985.454H326.889V1021.15H323.268V991.115H324.135L309.244 1016.61H307.459L292.466 991.115H293.435V1021.15H289.814ZM348.822 1021.41C346.544 1021.41 344.555 1020.98 342.855 1020.13C341.156 1019.28 339.83 1018.01 338.878 1016.31C337.96 1014.61 337.501 1012.48 337.501 1009.93V994.379H341.122V1009.52C341.122 1012.38 341.819 1014.54 343.212 1016C344.64 1017.43 346.629 1018.14 349.179 1018.14C351.049 1018.14 352.664 1017.77 354.024 1017.02C355.418 1016.24 356.472 1015.12 357.186 1013.66C357.934 1012.19 358.308 1010.44 358.308 1008.4V994.379H361.929V1021.15H358.461V1013.81L359.022 1015.13C358.172 1017.11 356.846 1018.65 355.044 1019.78C353.276 1020.86 351.202 1021.41 348.822 1021.41ZM372.02 1021.15V983.312H375.641V1021.15H372.02ZM394.331 1021.41C391.815 1021.41 389.877 1020.73 388.517 1019.37C387.157 1018.01 386.477 1016.09 386.477 1013.6V988.463H390.098V1013.4C390.098 1014.96 390.489 1016.17 391.271 1017.02C392.087 1017.87 393.243 1018.3 394.739 1018.3C396.337 1018.3 397.662 1017.84 398.716 1016.92L399.991 1019.52C399.277 1020.17 398.41 1020.64 397.39 1020.95C396.405 1021.25 395.385 1021.41 394.331 1021.41ZM381.683 997.387V994.379H398.257V997.387H381.683ZM406.583 1021.15V994.379H410.204V1021.15H406.583ZM408.419 988.463C407.671 988.463 407.042 988.208 406.532 987.698C406.022 987.188 405.767 986.576 405.767 985.862C405.767 985.148 406.022 984.553 406.532 984.077C407.042 983.567 407.671 983.312 408.419 983.312C409.167 983.312 409.796 983.55 410.306 984.026C410.816 984.502 411.071 985.097 411.071 985.811C411.071 986.559 410.816 987.188 410.306 987.698C409.83 988.208 409.201 988.463 408.419 988.463ZM431.637 1008.91V1005.75H444.998V1008.91H431.637ZM477.563 1021.41C474.911 1021.41 472.531 1020.83 470.423 1019.67C468.349 1018.48 466.718 1016.87 465.528 1014.83C464.338 1012.75 463.743 1010.39 463.743 1007.74C463.743 1005.05 464.338 1002.69 465.528 1000.65C466.718 998.611 468.349 997.013 470.423 995.858C472.531 994.702 474.911 994.124 477.563 994.124C479.841 994.124 481.898 994.566 483.734 995.45C485.57 996.334 487.015 997.659 488.069 999.427L485.366 1001.26C484.448 999.903 483.309 998.9 481.949 998.254C480.589 997.608 479.11 997.285 477.512 997.285C475.608 997.285 473.891 997.727 472.361 998.611C470.831 999.461 469.624 1000.67 468.74 1002.23C467.856 1003.8 467.414 1005.63 467.414 1007.74C467.414 1009.85 467.856 1011.68 468.74 1013.25C469.624 1014.81 470.831 1016.04 472.361 1016.92C473.891 1017.77 475.608 1018.19 477.512 1018.19C479.11 1018.19 480.589 1017.87 481.949 1017.23C483.309 1016.58 484.448 1015.59 485.366 1014.27L488.069 1016.1C487.015 1017.84 485.57 1019.16 483.734 1020.08C481.898 1020.97 479.841 1021.41 477.563 1021.41ZM494.783 1021.15V983.312H498.404V1021.15H494.783ZM519.392 1021.41C516.809 1021.41 514.48 1020.83 512.406 1019.67C510.366 1018.48 508.751 1016.87 507.561 1014.83C506.371 1012.75 505.776 1010.39 505.776 1007.74C505.776 1005.05 506.371 1002.69 507.561 1000.65C508.751 998.611 510.366 997.013 512.406 995.858C514.446 994.702 516.775 994.124 519.392 994.124C522.044 994.124 524.39 994.702 526.43 995.858C528.504 997.013 530.119 998.611 531.275 1000.65C532.465 1002.69 533.06 1005.05 533.06 1007.74C533.06 1010.39 532.465 1012.75 531.275 1014.83C530.119 1016.87 528.504 1018.48 526.43 1019.67C524.356 1020.83 522.01 1021.41 519.392 1021.41ZM519.392 1018.19C521.33 1018.19 523.047 1017.77 524.543 1016.92C526.039 1016.04 527.212 1014.81 528.062 1013.25C528.946 1011.65 529.388 1009.81 529.388 1007.74C529.388 1005.63 528.946 1003.8 528.062 1002.23C527.212 1000.67 526.039 999.461 524.543 998.611C523.047 997.727 521.347 997.285 519.443 997.285C517.539 997.285 515.84 997.727 514.344 998.611C512.848 999.461 511.658 1000.67 510.774 1002.23C509.89 1003.8 509.448 1005.63 509.448 1007.74C509.448 1009.81 509.89 1011.65 510.774 1013.25C511.658 1014.81 512.848 1016.04 514.344 1016.92C515.84 1017.77 517.522 1018.19 519.392 1018.19ZM551.519 1021.41C549.241 1021.41 547.252 1020.98 545.552 1020.13C543.852 1019.28 542.526 1018.01 541.574 1016.31C540.656 1014.61 540.197 1012.48 540.197 1009.93V994.379H543.818V1009.52C543.818 1012.38 544.515 1014.54 545.909 1016C547.337 1017.43 549.326 1018.14 551.876 1018.14C553.746 1018.14 555.361 1017.77 556.72 1017.02C558.114 1016.24 559.168 1015.12 559.882 1013.66C560.63 1012.19 561.004 1010.44 561.004 1008.4V994.379H564.625V1021.15H561.157V1013.81L561.718 1015.13C560.868 1017.11 559.542 1018.65 557.74 1019.78C555.972 1020.86 553.899 1021.41 551.519 1021.41ZM585.375 1021.41C582.825 1021.41 580.53 1020.83 578.49 1019.67C576.484 1018.52 574.903 1016.92 573.747 1014.88C572.591 1012.81 572.013 1010.43 572.013 1007.74C572.013 1005.02 572.591 1002.64 573.747 1000.6C574.903 998.56 576.484 996.979 578.49 995.858C580.53 994.702 582.825 994.124 585.375 994.124C587.721 994.124 589.812 994.651 591.648 995.705C593.517 996.759 594.996 998.305 596.084 1000.35C597.206 1002.35 597.767 1004.82 597.767 1007.74C597.767 1010.63 597.223 1013.09 596.135 1015.13C595.047 1017.17 593.568 1018.74 591.699 1019.83C589.863 1020.88 587.755 1021.41 585.375 1021.41ZM585.63 1018.19C587.534 1018.19 589.234 1017.77 590.73 1016.92C592.26 1016.04 593.449 1014.81 594.299 1013.25C595.183 1011.65 595.625 1009.81 595.625 1007.74C595.625 1005.63 595.183 1003.8 594.299 1002.23C593.449 1000.67 592.26 999.461 590.73 998.611C589.234 997.727 587.534 997.285 585.63 997.285C583.76 997.285 582.077 997.727 580.581 998.611C579.085 999.461 577.895 1000.67 577.011 1002.23C576.127 1003.8 575.685 1005.63 575.685 1007.74C575.685 1009.81 576.127 1011.65 577.011 1013.25C577.895 1014.81 579.085 1016.04 580.581 1016.92C582.077 1017.77 583.76 1018.19 585.63 1018.19ZM595.727 1021.15V1013.09L596.084 1007.69L595.574 1002.28V983.312H599.195V1021.15H595.727ZM626.655 1012.28L626.502 1007.69L648.125 985.454H652.46L636.702 1001.98L634.56 1004.27L626.655 1012.28ZM623.391 1021.15V985.454H627.165V1021.15H623.391ZM649.043 1021.15L633.642 1003.41L636.192 1000.65L653.531 1021.15H649.043ZM669.003 1021.41C666.725 1021.41 664.736 1020.98 663.036 1020.13C661.336 1019.28 660.01 1018.01 659.058 1016.31C658.14 1014.61 657.681 1012.48 657.681 1009.93V994.379H661.302V1009.52C661.302 1012.38 661.999 1014.54 663.393 1016C664.821 1017.43 666.81 1018.14 669.36 1018.14C671.23 1018.14 672.845 1017.77 674.205 1017.02C675.599 1016.24 676.653 1015.12 677.367 1013.66C678.115 1012.19 678.489 1010.44 678.489 1008.4V994.379H682.109V1021.15H678.642V1013.81L679.202 1015.13C678.353 1017.11 677.027 1018.65 675.225 1019.78C673.457 1020.86 671.383 1021.41 669.003 1021.41ZM706.021 1021.41C703.675 1021.41 701.567 1020.88 699.697 1019.83C697.827 1018.74 696.348 1017.17 695.26 1015.13C694.172 1013.09 693.628 1010.63 693.628 1007.74C693.628 1004.82 694.172 1002.35 695.26 1000.35C696.382 998.305 697.878 996.759 699.748 995.705C701.618 994.651 703.709 994.124 706.021 994.124C708.571 994.124 710.849 994.702 712.855 995.858C714.895 996.979 716.493 998.56 717.648 1000.6C718.804 1002.64 719.382 1005.02 719.382 1007.74C719.382 1010.43 718.804 1012.81 717.648 1014.88C716.493 1016.92 714.895 1018.52 712.855 1019.67C710.849 1020.83 708.571 1021.41 706.021 1021.41ZM692.201 1021.15V983.312H695.821V1002.28L695.311 1007.69L695.668 1013.09V1021.15H692.201ZM705.766 1018.19C707.67 1018.19 709.37 1017.77 710.866 1016.92C712.362 1016.04 713.552 1014.81 714.436 1013.25C715.32 1011.65 715.762 1009.81 715.762 1007.74C715.762 1005.63 715.32 1003.8 714.436 1002.23C713.552 1000.67 712.362 999.461 710.866 998.611C709.37 997.727 707.67 997.285 705.766 997.285C703.862 997.285 702.145 997.727 700.615 998.611C699.119 999.461 697.929 1000.67 697.045 1002.23C696.195 1003.8 695.77 1005.63 695.77 1007.74C695.77 1009.81 696.195 1011.65 697.045 1013.25C697.929 1014.81 699.119 1016.04 700.615 1016.92C702.145 1017.77 703.862 1018.19 705.766 1018.19ZM738.136 1021.41C735.348 1021.41 732.9 1020.83 730.792 1019.67C728.684 1018.48 727.036 1016.87 725.846 1014.83C724.656 1012.75 724.061 1010.39 724.061 1007.74C724.061 1005.09 724.622 1002.74 725.744 1000.7C726.9 998.662 728.463 997.064 730.435 995.909C732.441 994.719 734.685 994.124 737.167 994.124C739.683 994.124 741.91 994.702 743.848 995.858C745.82 996.979 747.367 998.577 748.489 1000.65C749.611 1002.69 750.172 1005.05 750.172 1007.74C750.172 1007.91 750.155 1008.1 750.121 1008.3C750.121 1008.47 750.121 1008.66 750.121 1008.86H726.815V1006.16H748.183L746.755 1007.23C746.755 1005.29 746.33 1003.58 745.48 1002.08C744.664 1000.55 743.542 999.359 742.114 998.509C740.686 997.659 739.037 997.234 737.167 997.234C735.331 997.234 733.682 997.659 732.22 998.509C730.758 999.359 729.619 1000.55 728.803 1002.08C727.987 1003.61 727.58 1005.36 727.58 1007.33V1007.89C727.58 1009.93 728.021 1011.73 728.905 1013.3C729.823 1014.83 731.081 1016.04 732.679 1016.92C734.311 1017.77 736.164 1018.19 738.238 1018.19C739.87 1018.19 741.383 1017.91 742.777 1017.33C744.205 1016.75 745.429 1015.87 746.449 1014.68L748.489 1017.02C747.299 1018.45 745.803 1019.54 744.001 1020.29C742.233 1021.03 740.278 1021.41 738.136 1021.41ZM757.542 1021.15V994.379H761.009V1001.67L760.652 1000.4C761.4 998.356 762.658 996.81 764.426 995.756C766.194 994.668 768.387 994.124 771.005 994.124V997.642C770.869 997.642 770.733 997.642 770.597 997.642C770.461 997.608 770.325 997.591 770.189 997.591C767.367 997.591 765.157 998.458 763.559 1000.19C761.961 1001.89 761.162 1004.32 761.162 1007.49V1021.15H757.542ZM791.279 994.124C793.455 994.124 795.359 994.549 796.991 995.399C798.657 996.215 799.949 997.472 800.867 999.172C801.819 1000.87 802.295 1003.01 802.295 1005.6V1021.15H798.674V1005.96C798.674 1003.13 797.96 1001.01 796.532 999.58C795.138 998.118 793.166 997.387 790.616 997.387C788.712 997.387 787.047 997.778 785.619 998.56C784.225 999.308 783.137 1000.41 782.355 1001.88C781.607 1003.3 781.233 1005.04 781.233 1007.08V1021.15H777.612V994.379H781.08V1001.72L780.519 1000.35C781.369 998.407 782.729 996.894 784.599 995.807C786.469 994.685 788.695 994.124 791.279 994.124ZM823.448 1021.41C820.66 1021.41 818.212 1020.83 816.104 1019.67C813.996 1018.48 812.347 1016.87 811.157 1014.83C809.967 1012.75 809.372 1010.39 809.372 1007.74C809.372 1005.09 809.933 1002.74 811.055 1000.7C812.211 998.662 813.775 997.064 815.747 995.909C817.753 994.719 819.997 994.124 822.479 994.124C824.995 994.124 827.222 994.702 829.16 995.858C831.132 996.979 832.678 998.577 833.8 1000.65C834.922 1002.69 835.483 1005.05 835.483 1007.74C835.483 1007.91 835.466 1008.1 835.432 1008.3C835.432 1008.47 835.432 1008.66 835.432 1008.86H812.126V1006.16H833.494L832.066 1007.23C832.066 1005.29 831.642 1003.58 830.792 1002.08C829.976 1000.55 828.854 999.359 827.426 998.509C825.998 997.659 824.349 997.234 822.479 997.234C820.643 997.234 818.994 997.659 817.532 998.509C816.07 999.359 814.931 1000.55 814.115 1002.08C813.299 1003.61 812.891 1005.36 812.891 1007.33V1007.89C812.891 1009.93 813.333 1011.73 814.217 1013.3C815.135 1014.83 816.393 1016.04 817.991 1016.92C819.623 1017.77 821.476 1018.19 823.55 1018.19C825.182 1018.19 826.695 1017.91 828.089 1017.33C829.517 1016.75 830.741 1015.87 831.76 1014.68L833.8 1017.02C832.61 1018.45 831.115 1019.54 829.313 1020.29C827.545 1021.03 825.59 1021.41 823.448 1021.41ZM851.319 1021.41C848.803 1021.41 846.865 1020.73 845.505 1019.37C844.145 1018.01 843.465 1016.09 843.465 1013.6V988.463H847.086V1013.4C847.086 1014.96 847.477 1016.17 848.259 1017.02C849.075 1017.87 850.231 1018.3 851.727 1018.3C853.325 1018.3 854.651 1017.84 855.705 1016.92L856.98 1019.52C856.266 1020.17 855.399 1020.64 854.379 1020.95C853.393 1021.25 852.373 1021.41 851.319 1021.41ZM838.671 997.387V994.379H855.246V997.387H838.671ZM873.997 1021.41C871.21 1021.41 868.762 1020.83 866.654 1019.67C864.546 1018.48 862.897 1016.87 861.707 1014.83C860.517 1012.75 859.922 1010.39 859.922 1007.74C859.922 1005.09 860.483 1002.74 861.605 1000.7C862.761 998.662 864.325 997.064 866.297 995.909C868.303 994.719 870.547 994.124 873.028 994.124C875.544 994.124 877.771 994.702 879.709 995.858C881.681 996.979 883.228 998.577 884.35 1000.65C885.472 1002.69 886.033 1005.05 886.033 1007.74C886.033 1007.91 886.016 1008.1 885.982 1008.3C885.982 1008.47 885.982 1008.66 885.982 1008.86H862.676V1006.16H884.044L882.616 1007.23C882.616 1005.29 882.191 1003.58 881.341 1002.08C880.525 1000.55 879.403 999.359 877.975 998.509C876.547 997.659 874.898 997.234 873.028 997.234C871.193 997.234 869.544 997.659 868.082 998.509C866.62 999.359 865.481 1000.55 864.665 1002.08C863.849 1003.61 863.441 1005.36 863.441 1007.33V1007.89C863.441 1009.93 863.883 1011.73 864.767 1013.3C865.685 1014.83 866.943 1016.04 868.541 1016.92C870.173 1017.77 872.025 1018.19 874.099 1018.19C875.731 1018.19 877.244 1017.91 878.638 1017.33C880.066 1016.75 881.29 1015.87 882.31 1014.68L884.35 1017.02C883.16 1018.45 881.664 1019.54 879.862 1020.29C878.094 1021.03 876.139 1021.41 873.997 1021.41ZM900.594 1021.41C898.384 1021.41 896.293 1021.1 894.321 1020.49C892.349 1019.84 890.802 1019.04 889.68 1018.09L891.312 1015.24C892.4 1016.05 893.794 1016.77 895.494 1017.38C897.194 1017.96 898.979 1018.25 900.849 1018.25C903.398 1018.25 905.234 1017.85 906.356 1017.07C907.478 1016.26 908.039 1015.19 908.039 1013.86C908.039 1012.87 907.716 1012.11 907.07 1011.56C906.458 1010.99 905.642 1010.56 904.622 1010.29C903.602 1009.98 902.464 1009.73 901.206 1009.52C899.948 1009.32 898.69 1009.08 897.432 1008.81C896.208 1008.54 895.086 1008.15 894.066 1007.64C893.046 1007.09 892.213 1006.36 891.567 1005.45C890.955 1004.53 890.649 1003.3 890.649 1001.77C890.649 1000.31 891.057 999.002 891.873 997.846C892.689 996.691 893.879 995.79 895.443 995.144C897.041 994.464 898.979 994.124 901.257 994.124C902.991 994.124 904.724 994.362 906.458 994.838C908.192 995.28 909.62 995.875 910.742 996.623L909.161 999.529C907.971 998.713 906.696 998.135 905.336 997.795C903.976 997.421 902.617 997.234 901.257 997.234C898.843 997.234 897.058 997.659 895.902 998.509C894.78 999.325 894.219 1000.38 894.219 1001.67C894.219 1002.69 894.525 1003.49 895.137 1004.07C895.783 1004.65 896.616 1005.11 897.636 1005.45C898.69 1005.75 899.829 1006.01 901.053 1006.21C902.311 1006.41 903.551 1006.67 904.775 1006.98C906.033 1007.25 907.172 1007.64 908.192 1008.15C909.246 1008.62 910.079 1009.32 910.691 1010.24C911.337 1011.12 911.66 1012.3 911.66 1013.76C911.66 1015.32 911.218 1016.68 910.334 1017.84C909.484 1018.96 908.226 1019.84 906.56 1020.49C904.928 1021.1 902.94 1021.41 900.594 1021.41Z" fill="#2A6A95"/>
<path d="M356.199 861.147H323.171C312.685 861.147 304.185 869.652 304.185 880.143V899.161C304.185 909.652 312.685 918.157 323.171 918.157H356.199H376.199C376.199 924.151 359.745 938.152 346.243 938.152H323.171C301.647 938.152 284.199 920.695 284.199 899.161V880.143C284.199 858.609 301.647 841.152 323.171 841.152H346.243C361.245 841.152 376.199 856.653 376.199 861.147H356.199Z" fill="#2A6A95"/>
<path d="M394.199 833.152C394.199 822.106 403.154 813.152 414.199 813.152V813.152V938.152H394.199V833.152Z" fill="#2A6A95"/>
<path d="M483.025 841.175C488.225 841.175 494.037 840.994 497.04 841.652C516.656 845.949 529.22 860.502 529.199 881.772V899.152C529.199 920.691 511.738 938.152 490.199 938.152H468.073C457.04 938.152 439.476 929.78 433.536 913.184C427.597 896.588 442.045 875.769 464.997 875.769H509.194C509.194 868.73 501.041 861.131 487.441 861.131H435.975V861.131C443.141 848.778 456.341 841.175 470.622 841.175L483.025 841.175ZM486.768 918.054C499.153 918.054 509.194 908.013 509.194 895.627V895.627H464.997C448.473 895.627 448.437 918.054 464.997 918.054H486.768Z" fill="#2A6A95"/>
<path d="M567.194 861.152L567.194 899.18C567.194 909.666 575.699 918.167 586.19 918.167L605.209 918.167C615.7 918.167 624.204 909.666 624.204 899.18L624.204 861.152L624.204 841.152C630.198 841.152 644.199 857.606 644.199 871.109L644.199 899.18C644.199 920.704 626.743 938.152 605.209 938.152L586.19 938.152C564.656 938.152 547.199 920.704 547.199 899.18L547.199 871.109C547.199 856.106 562.7 841.152 567.194 841.152L567.194 861.152Z" fill="#2A6A95"/>
<path fill-rule="evenodd" clip-rule="evenodd" d="M760.185 813.152C749.147 813.152 740.199 819.279 740.199 830.33L740.199 841.034H701.199C679.66 841.034 662.199 858.516 662.199 880.081V899.104C662.199 920.67 679.66 938.152 701.199 938.152H721.199C742.738 938.152 760.199 920.67 760.199 899.104V841.034H760.185L760.185 813.152ZM740.199 861.058H701.199C690.706 861.058 682.199 869.575 682.199 880.081V899.104C682.199 909.611 690.706 918.128 701.199 918.128H721.199C731.693 918.128 740.199 909.611 740.199 899.104V861.058Z" fill="#2A6A95"/>
<path fill-rule="evenodd" clip-rule="evenodd" d="M798.199 813C787.154 813 778.199 821.954 778.199 833H798.199V813ZM798.214 841.152H778.214V938.152H798.214V841.152Z" fill="#2A6A95"/>
<path fill-rule="evenodd" clip-rule="evenodd" d="M855.309 938.152C833.917 938.152 816.545 921.014 816.277 899.771C816.193 893.129 816.193 886.476 816.277 879.833C816.551 858.112 834.022 841.152 855.413 841.152H874.43C889.409 841.152 901.286 848.606 908.223 859.397C914.692 869.461 914.387 881.089 914.087 892.57C914.023 894.982 913.96 897.388 913.96 899.771H836.298C836.563 910.002 844.973 918.214 855.309 918.214H874.326H908.823C902.148 930.109 888.98 938.152 874.326 938.152H855.309ZM838.211 880.544C838.476 870.314 846.886 862.102 857.222 862.102H876.239C886.574 862.102 894.984 870.314 895.249 880.544H866.73H838.211Z" fill="#2A6A95"/>
<path d="M532.023 534.658C542.518 531.589 552.291 528.472 560.991 525.391C555.866 484.767 553.306 445.117 559.362 404.378C549.921 401.265 540.518 398.201 530.937 395.702C525.408 444.915 527.368 492.505 532.023 534.658Z" fill="#2A6A95"/>
<path fill-rule="evenodd" clip-rule="evenodd" d="M557.781 189.841C583.936 174.875 616.057 174.863 642.224 189.81L815.635 288.866C842.146 304.01 858.509 332.201 858.509 362.733V565.591C858.509 595.916 842.366 623.947 816.139 639.168L642.56 739.9C616.227 755.181 583.735 755.225 557.361 740.014L383.458 639.718C357.118 624.527 340.89 596.433 340.89 566.027V363.279C340.89 332.769 357.228 304.596 383.71 289.444L557.781 189.841ZM804.457 307.71L632.156 209.288C600.464 253.955 581.495 309.709 568.614 362.302C559.112 358.25 548.399 353.872 538.292 350.192C545.242 304.234 553.257 258.178 562.207 212.548C505.694 244.885 447.11 275.079 392.128 309.942C497.62 343.296 606.732 377.337 697.056 443.367C691.475 448.66 685.146 453.934 675.728 461.629C595.623 393.067 495.161 364.932 362.797 372.686V562.831C374.494 563.63 386.471 564.425 397.965 564.075C595.295 558.068 734.853 462.395 804.457 307.71ZM392.882 619.835C448.25 653.862 505.688 684.923 561.988 717.393C552.873 669.849 545.19 625.018 538.11 577.119C548.982 573.419 561.438 568.329 568.511 565.405C581.874 621.274 602.019 672.026 633.116 720.052L800.228 623.072C786.376 572.676 743.068 527.777 707.837 492.217C716.854 486.069 725.426 479.318 733.98 472.549C769.387 501.605 802.215 531.453 836.602 561.694V370.596C821.969 384.038 799.601 404.361 773.441 427.376C663.215 524.346 624.942 538.145 392.882 619.835Z" fill="#2A6A95"/>
</svg>
